inDegrees=no
num_controls=7
num_derivatives=13
num_iterations=176
num_multipliers=7
num_parameters=0
num_slacks=7
num_states=26
objective=0.497088
objective_accelerations=0.032335
objective_balance=0.003249
objective_effort=0.035035
objective_height=0.420971
objective_ligament=0.005497
solver_duration=2021.557610
status=Solve_Succeeded
success=true
DataType=double
version=3
OpenSimVersion=4.5
endheader
time	/jointset/ground_pelvis/pelvis_tilt/value	/jointset/ground_pelvis/pelvis_tx/value	/jointset/ground_pelvis/pelvis_ty/value	/jointset/hip_r/hip_flexion_r/value	/jointset/hip_r/hip_adduction_r/value	/jointset/hip_r/hip_rotation_r/value	/jointset/back/lumbar_extension/value	/jointset/patellofemoral_r/patellar_flexion_r/value	/jointset/knee_r/knee_flexion_r/value	/jointset/knee_r/knee_adduction_r/value	/jointset/knee_r/knee_rotation_r/value	/jointset/ankle_r/ankle_angle_r/value	/jointset/subtalar_r/subtalar_angle_r/value	/jointset/ground_pelvis/pelvis_tilt/speed	/jointset/ground_pelvis/pelvis_tx/speed	/jointset/ground_pelvis/pelvis_ty/speed	/jointset/hip_r/hip_flexion_r/speed	/jointset/hip_r/hip_adduction_r/speed	/jointset/hip_r/hip_rotation_r/speed	/jointset/back/lumbar_extension/speed	/jointset/patellofemoral_r/patellar_flexion_r/speed	/jointset/knee_r/knee_flexion_r/speed	/jointset/knee_r/knee_adduction_r/speed	/jointset/knee_r/knee_rotation_r/speed	/jointset/ankle_r/ankle_angle_r/speed	/jointset/subtalar_r/subtalar_angle_r/speed	/forceset/tau_hip_flexion_r	/forceset/tau_hip_adduction_r	/forceset/tau_hip_rotation_r	/forceset/tau_knee_flexion_r	/forceset/tau_ankle_angle_r	/forceset/tau_subtalar_angle_r	/forceset/tau_lumbar_extension	lambda_cid13_p0	lambda_cid14_p0	lambda_cid14_p1	lambda_cid14_p2	lambda_cid14_p3	lambda_cid14_p4	lambda_cid14_p5	/jointset/ground_pelvis/pelvis_tilt/accel	/jointset/ground_pelvis/pelvis_tx/accel	/jointset/ground_pelvis/pelvis_ty/accel	/jointset/hip_r/hip_flexion_r/accel	/jointset/hip_r/hip_adduction_r/accel	/jointset/hip_r/hip_rotation_r/accel	/jointset/back/lumbar_extension/accel	/jointset/patellofemoral_r/patellar_flexion_r/accel	/jointset/knee_r/knee_flexion_r/accel	/jointset/knee_r/knee_adduction_r/accel	/jointset/knee_r/knee_rotation_r/accel	/jointset/ankle_r/ankle_angle_r/accel	/jointset/subtalar_r/subtalar_angle_r/accel	gamma_cid13_p0	gamma_cid14_p0	gamma_cid14_p1	gamma_cid14_p2	gamma_cid14_p3	gamma_cid14_p4	gamma_cid14_p5
0	-0.006515331733211953	0.09626027671576164	0.9427240698041551	0.1762555222360518	-0.232152748511245	-0.2616400938293764	-0.038598046466844	0.07317863873451182	0.07317863873451017	0.1745328240058163	0.1745323810074735	0.03247278518263602	-0.003452046875619727	0	0	0	0	0	0	0	0	0	0	0	0	0	0.2303441652666848	-0.1815950240888953	-0.04832881978818569	-0.4341226776739598	0.4535553659462016	-0.1422849942242818	-0.1219413143235755	-39.0763729454325	96.25464396712955	-35.23813782824386	-5.004976581453825	-51.80178630793205	-680.4223011415754	67.36133392013286	-1.31238715308452	-0.5851987233711932	-0.4798628648056096	7.117120819126693	0.200674732932152	2.277666733888378	-4.709237085281064	8.468873929557615	8.468873929557619	-2.685767528576951	0.1417350458969736	3.471100366277346	0.9961628655068978	8.934348117061323e-08	4.353113525505891e-08	-6.19962038672307e-07	2.022152107454772e-07	3.911160261868509e-08	1.34284973333202e-09	-3.430523614620117e-07
0.01	-0.006575505100065366	0.09623085022345031	0.9427010538148186	0.1765998517518034	-0.2321414693403397	-0.2615190921707103	-0.03883557337074205	0.07358999833996144	0.07358999833996152	0.174398418881625	0.1745288360502778	0.03264165920714995	-0.003402091335213922	-0.01197705690587746	-0.005927159593104798	-0.004595882054862142	0.06862016674072698	0.00221360703324054	0.02404764817938051	-0.04722195797510333	0.08189583709526441	0.0818958370952617	-0.02668007279258089	-0.0006741246401831557	0.03351860828940198	0.009889209929234427	0.2230140376964823	-0.1888379662954678	-0.04612924227515328	-0.4218039467788484	0.4322249740082023	-0.1285040233892659	-0.1164651060938157	-39.08997633527229	89.87755964806432	-30.42382994202458	-5.710615365328674	-47.22184670877598	-680.7614027813316	76.04036358145058	-1.131717274989947	-0.6027459245170851	-0.4483532353925991	6.697608819914803	0.2253128390505972	2.445459431999483	-4.686161732977755	7.993508131637732	7.993508131637645	-2.629058083972773	-0.1666991479133208	3.253826167819854	0.9699411343026929	1.220907634338267e-07	5.423588543917608e-08	-8.280794403641462e-07	2.049687652305276e-07	6.079785240580125e-08	-1.21521897921696e-07	-4.008024031116029e-07
0.02	-0.006753719499106744	0.09614089786576056	0.9426322985330202	0.1776230117786372	-0.232109332268996	-0.2611621849158436	-0.03953681717026145	0.07480903022278929	0.07480903022279109	0.1740032268436331	0.1745196072608439	0.03313803633606754	-0.003256315479981571	-0.02360820643778146	-0.01210517307568169	-0.009147858492370849	0.1357661022162175	0.004171580087704546	0.04718111924022309	-0.09274337912432032	0.1615344554756039	0.1615344554756115	-0.05215738276012603	-0.001136766437858979	0.06550062088073309	0.01916406296530785	0.2156839101262844	-0.1960809085020399	-0.04392966476211983	-0.4094852158837347	0.4108945820702037	-0.1147230525542494	-0.1109888978640529	-39.13027822107376	83.57611569411159	-25.61746503012746	-6.390786260659996	-42.8272148439052	-679.9609942033748	84.49656517504827	-1.243205678289848	-0.6353695012655884	-0.4710817413349238	6.822274566079403	0.1495479371768354	2.094831310180707	-4.369129720103804	8.017430186572634	8.017430186575242	-2.445214963569777	0.1840316143985275	3.163781226663197	0.8732914868746934	1.548380456970401e-07	6.494063562329326e-08	-1.036196842055985e-06	2.07722319715578e-07	8.24841021929174e-08	-2.443866455767241e-07	-4.58552444761194e-07
0.03	-0.00704669620525359	0.09598870517404504	0.9425180708895645	0.1793098734735125	-0.2320591263041143	-0.2605797957038563	-0.04068409360976637	0.07681414820287492	0.07681414820287547	0.1733598096632976	0.174508158347748	0.03394782773032876	-0.003020774414557239	-0.03491224798584669	-0.01829449129725401	-0.01370057228103602	0.2012644065061414	0.005818478097375224	0.06917339905514767	-0.136396745081816	0.2391485403765266	0.2391485403765525	-0.07629987292343267	-0.001153016582213298	0.09631952159198119	0.02786170237294941	0.2098982231544785	-0.1943734410170521	-0.04237585005841821	-0.4024398349487692	0.4003538823714971	-0.1113755166932188	-0.1063695166906177	-39.19632549994516	80.35490884916841	-24.77960938951023	-6.46500257906739	-40.98165837303802	-679.5506107523634	85.17770303541091	-1.062755155425796	-0.6048653025754384	-0.4478508837251824	6.36234376345319	0.1644754470356588	2.232986172314429	-4.31616547937015	7.582276517190446	7.582276517191464	-2.364979285819844	-0.09437899513306099	3.020254614531097	0.8554927636072114	1.685918125629823e-07	6.582226309828119e-08	-1.12428975512726e-06	2.139280681161359e-07	9.617264345818929e-08	-3.348351224559212e-07	-4.960363920704686e-07
0.04	-0.007450463679352131	0.09577578883611934	0.9423582191710035	0.1816414652918884	-0.2319940084163014	-0.2597811717226866	-0.04225844879800565	0.07958518280703687	0.07958518280703608	0.1724817249327087	0.1744965617999466	0.03506167015593755	-0.002700758435876807	-0.04576636002835273	-0.02424990231771674	-0.01827267351341726	0.264712126916237	0.007153964673984661	0.09042807307671541	-0.1781591288712218	0.3147177802909834	0.3147177802910106	-0.09909089281108865	-0.001166293377793022	0.1263108271502487	0.03605904561652395	0.2041125361826696	-0.1926659735320635	-0.04082203535471277	-0.3953944540138052	0.3898131826727904	-0.1080279808321875	-0.101750135517185	-39.28680322367366	77.20275562191748	-23.94751422522157	-6.51790899660502	-39.30805719446479	-678.1032547268427	85.65674806250962	-1.153219777178034	-0.5885880610436489	-0.4749592300781409	6.412157790113739	0.08726565056457995	1.947310151509309	-3.990933286485856	7.608461189279441	7.608461189278647	-2.174920908439629	0.1846262841534773	2.998262196067097	0.7732322540612909	1.81953960554754e-07	6.650135196070976e-08	-1.209907936474399e-06	2.202049957726837e-07	1.096962835168252e-07	-4.246152226180908e-07	-5.331024817644789e-07
0.05	-0.007961015881797621	0.09550425617664739	0.9421523661365908	0.1845983170192214	-0.2319170119762347	-0.258775431836096	-0.04424090192259108	0.08310231870526856	0.08310231870526776	0.1713824568934702	0.1744864840522461	0.03647112760793887	-0.002301181864107702	-0.05628279127736983	-0.03003897733648117	-0.02291258243160483	0.3263524476706236	0.008210234324835128	0.1106056293220042	-0.2180444904867036	0.3883511527532117	0.3883511527532474	-0.1205535241324729	-0.0008838617175148728	0.1554090533328376	0.04378428501316146	0.1977350034416462	-0.1844905508765577	-0.03902665219975154	-0.3877803930355481	0.3787520921938305	-0.1095160633541921	-0.0967685942326198	-39.4002499846129	73.65587541037586	-25.27377306014731	-6.239130539687148	-36.97581800151887	-677.148579524375	81.66533427678577	-0.9916403637104048	-0.5713973376698476	-0.4607897306076555	5.99411596609022	0.1094119184648561	2.03590141266121	-3.944286765228745	7.187001785601014	7.187001785602772	-2.100720279591096	-0.05505732536337804	2.839897739618299	0.7612062511887828	1.785809484790661e-07	6.078801249917354e-08	-1.179646144847055e-06	2.109092878280947e-07	1.138101241829182e-07	-4.874045206033729e-07	-5.259819434558087e-07
